<mxfile host="app.diagrams.net" modified="2024-04-06T18:41:17.541Z" agent="Mozilla/5.0 (Macintosh; Intel Mac OS X 10_15_7) AppleWebKit/605.1.15 (KHTML, like Gecko) Version/17.4 Safari/605.1.15" etag="Lyg27Kr5s2SyIcdiRZGh" version="24.0.7" type="github">
  <diagram name="Page-1" id="b5b7bab2-c9e2-2cf4-8b2a-24fd1a2a6d21">
    <mxGraphModel dx="954" dy="647" grid="1" gridSize="10" guides="1" tooltips="1" connect="1" arrows="1" fold="1" page="1" pageScale="1" pageWidth="827" pageHeight="1169" background="none" math="0" shadow="0">
      <root>
        <mxCell id="0" />
        <mxCell id="1" parent="0" />
        <mxCell id="TmnGhftIG_K0yJFdEBpx-1" value="" style="shape=image;verticalLabelPosition=bottom;labelBackgroundColor=default;verticalAlign=top;aspect=fixed;imageAspect=0;image=data:image/svg+xml,PHN2ZyB4bWxuczp4bGluaz0iaHR0cDovL3d3dy53My5vcmcvMTk5OS94bGluayIgeG1sbnM9Imh0dHA6Ly93d3cudzMub3JnLzIwMDAvc3ZnIiBoZWlnaHQ9IjExNjQiIHdpZHRoPSIxMDEwIiB2aWV3Qm94PSIwIDAgMTAxMCAxMTY0Ij4mI3hhOyYjeGE7PHBhdGggZmlsbD0id2hpdGUiIHN0cm9rZS1saW5lam9pbj0icm91bmQiIHN0cm9rZS1saW5lY2FwPSJyb3VuZCIgc3Ryb2tlPSJibGFjayIgc3Ryb2tlLXdpZHRoPSIxLjAwIiBkPSJNIDMyNS43NiA1Ni41MiBMIDQ4OC43OCA1Ni41MiBMIDQ4OC43OCAyMDcuNzIgTCAzMjUuNzYgMjA3LjcyIFogTSAzMjUuNzYgNzcuNTIgTCA0ODguNzggNzcuNTIgTCA0ODguNzggNzcuNTIgTCAzMjUuNzYgNzcuNTIgWiBNIDMyNS43NiAxODcuNzIgTCA0ODguNzggMTg3LjcyIEwgNDg4Ljc4IDE4Ny43MiBMIDMyNS43NiAxODcuNzIgWiBNIDMyNS43NiAxODcuNzIiLz4mI3hhOyYjeGE7PHRleHQgb3BhY2l0eT0iMS4wMCIgZmlsbD0iYmxhY2siIGZvbnQtc2l6ZT0iMTIuMDBweCIgZm9udC1mYW1pbHk9IkhlbHZldGljYSIgeT0iNzEuNzYiIHg9IjM4Mi45MiI+S29udGVuZXI8L3RleHQ+JiN4YTs8dGV4dCBvcGFjaXR5PSIxLjAwIiBmaWxsPSJibGFjayIgZm9udC1zaXplPSIxMi4wMHB4IiBmb250LWZhbWlseT0iSGVsdmV0aWNhIiB5PSI5Mi4zNiIgeD0iMzMwLjI2Ij5OdW1lciB7dW5pcXVlfTwvdGV4dD4mI3hhOzx0ZXh0IG9wYWNpdHk9IjEuMDAiIGZpbGw9ImJsYWNrIiBmb250LXNpemU9IjEyLjAwcHgiIGZvbnQtZmFtaWx5PSJIZWx2ZXRpY2EiIHk9IjEwNy4zNiIgeD0iMzMwLjI2Ij5UeXAgezAuLip9PC90ZXh0PiYjeGE7PHRleHQgb3BhY2l0eT0iMS4wMCIgZmlsbD0iYmxhY2siIGZvbnQtc2l6ZT0iMTIuMDBweCIgZm9udC1mYW1pbHk9IkhlbHZldGljYSIgeT0iMTIyLjM2IiB4PSIzMzAuMjYiPlJvZHphajwvdGV4dD4mI3hhOzx0ZXh0IG9wYWNpdHk9IjEuMDAiIGZpbGw9ImJsYWNrIiBmb250LXNpemU9IjEyLjAwcHgiIGZvbnQtZmFtaWx5PSJIZWx2ZXRpY2EiIHk9IjEzNy4zNiIgeD0iMzMwLjI2Ij5XeW1pYXJ5PC90ZXh0PiYjeGE7PHRleHQgb3BhY2l0eT0iMS4wMCIgZmlsbD0iYmxhY2siIGZvbnQtc2l6ZT0iMTIuMDBweCIgZm9udC1mYW1pbHk9IkhlbHZldGljYSIgeT0iMTUyLjM2IiB4PSIzMzAuMjYiPlN0YW4ge3cgcG9yY2llLCBuaWUgdyBwb3JjaWV9PC90ZXh0PiYjeGE7PHRleHQgb3BhY2l0eT0iMS4wMCIgZmlsbD0iYmxhY2siIGZvbnQtc2l6ZT0iMTIuMDBweCIgZm9udC1mYW1pbHk9IkhlbHZldGljYSIgeT0iMTY3LjM2IiB4PSIzMzAuMjYiPk1ha3N5bWFsbmEgbWFzYTwvdGV4dD4mI3hhOzx0ZXh0IG9wYWNpdHk9IjEuMDAiIGZpbGw9ImJsYWNrIiBmb250LXNpemU9IjEyLjAwcHgiIGZvbnQtZmFtaWx5PSJIZWx2ZXRpY2EiIHk9IjE4Mi4zNiIgeD0iMzMwLjI2Ij4vIEt1YmF0dXJhIHdld27EmXRyem5hPC90ZXh0PiYjeGE7PHBhdGggZmlsbD0id2hpdGUiIHN0cm9rZS1saW5lam9pbj0icm91bmQiIHN0cm9rZS1saW5lY2FwPSJyb3VuZCIgc3Ryb2tlPSJibGFjayIgc3Ryb2tlLXdpZHRoPSIxLjAwIiBkPSJNIDUzNy4yMCA1Ni41MiBMIDY3Ny41NyA1Ni41MiBMIDY3Ny41NyA3Ny41MiBMIDUzNy4yMCA3Ny41MiBaIE0gNTM3LjIwIDc3LjUyIEwgNjc3LjU3IDc3LjUyIEwgNjc3LjU3IDE4Mi41OSBMIDUzNy4yMCAxODIuNTkgWiBNIDUzNy4yMCA3Ny41MiIvPiYjeGE7JiN4YTs8dGV4dCBvcGFjaXR5PSIxLjAwIiBmaWxsPSJibGFjayIgZm9udC1zaXplPSIxMi4wMHB4IiBmb250LWZhbWlseT0iSGVsdmV0aWNhIiB5PSI3MS43NiIgeD0iNTQxLjcwIj5XeW1pYXJ5PC90ZXh0PiYjeGE7PHRleHQgb3BhY2l0eT0iMS4wMCIgZmlsbD0iYmxhY2siIGZvbnQtc2l6ZT0iMTIuMDBweCIgZm9udC1mYW1pbHk9IkhlbHZldGljYSIgeT0iOTcuNTUiIHg9IjU0MS43MCI+RMWCdWdvxZvEhyB6ZXduxJl0cnpuYTwvdGV4dD4mI3hhOzx0ZXh0IG9wYWNpdHk9IjEuMDAiIGZpbGw9ImJsYWNrIiBmb250LXNpemU9IjEyLjAwcHgiIGZvbnQtZmFtaWx5PSJIZWx2ZXRpY2EiIHk9IjExMi41NSIgeD0iNTQxLjcwIj5ExYJ1Z2/Fm8SHIHdld27EmXRyem5hPC90ZXh0PiYjeGE7PHRleHQgb3BhY2l0eT0iMS4wMCIgZmlsbD0iYmxhY2siIGZvbnQtc2l6ZT0iMTIuMDBweCIgZm9udC1mYW1pbHk9IkhlbHZldGljYSIgeT0iMTI3LjU1IiB4PSI1NDEuNzAiPld5c29rb8WbxIcgemV3bsSZdHJ6bmE8L3RleHQ+JiN4YTs8dGV4dCBvcGFjaXR5PSIxLjAwIiBmaWxsPSJibGFjayIgZm9udC1zaXplPSIxMi4wMHB4IiBmb250LWZhbWlseT0iSGVsdmV0aWNhIiB5PSIxNDIuNTUiIHg9IjU0MS43MCI+V3lzb2tvxZvEhyB3ZXduxJl0cnpuYTwvdGV4dD4mI3hhOzx0ZXh0IG9wYWNpdHk9IjEuMDAiIGZpbGw9ImJsYWNrIiBmb250LXNpemU9IjEyLjAwcHgiIGZvbnQtZmFtaWx5PSJIZWx2ZXRpY2EiIHk9IjE1Ny41NSIgeD0iNTQxLjcwIj5TemVyb2tvxZvEhyB6ZXduxJl0cnpuYTwvdGV4dD4mI3hhOzx0ZXh0IG9wYWNpdHk9IjEuMDAiIGZpbGw9ImJsYWNrIiBmb250LXNpemU9IjEyLjAwcHgiIGZvbnQtZmFtaWx5PSJIZWx2ZXRpY2EiIHk9IjE3Mi41NSIgeD0iNTQxLjcwIj5TemVyb2tvxZvEhyB3ZXduxJl0cnpuYTwvdGV4dD4mI3hhOzxwYXRoIGZpbGw9IndoaXRlIiBzdHJva2UtbGluZWpvaW49InJvdW5kIiBzdHJva2UtbGluZWNhcD0icm91bmQiIHN0cm9rZT0iYmxhY2siIHN0cm9rZS13aWR0aD0iMS4wMCIgZD0iTSAxNTIuMzIgNTYuNTIgTCAyODIuMzIgNTYuNTIgTCAyODIuMzIgNzcuNTIgTCAxNTIuMzIgNzcuNTIgWiBNIDE1Mi4zMiA3Ny41MiBMIDI4Mi4zMiA3Ny41MiBMIDI4Mi4zMiAxNTYuNTIgTCAxNTIuMzIgMTU2LjUyIFogTSAxNTIuMzIgNzcuNTIiLz4mI3hhOyYjeGE7PHRleHQgb3BhY2l0eT0iMS4wMCIgZmlsbD0iYmxhY2siIGZvbnQtc2l6ZT0iMTIuMDBweCIgZm9udC1mYW1pbHk9IkhlbHZldGljYSIgeT0iNzEuNzYiIHg9IjE1Ni44MiI+Um9kemFqPC90ZXh0PiYjeGE7PHRleHQgb3BhY2l0eT0iMS4wMCIgZmlsbD0iYmxhY2siIGZvbnQtc2l6ZT0iMTIuMDBweCIgZm9udC1mYW1pbHk9IkhlbHZldGljYSIgeT0iOTkuNTEiIHg9IjE1Ni44MiI+VW5pd2Vyc2Fsbnk8L3RleHQ+JiN4YTs8dGV4dCBvcGFjaXR5PSIxLjAwIiBmaWxsPSJibGFjayIgZm9udC1zaXplPSIxMi4wMHB4IiBmb250LWZhbWlseT0iSGVsdmV0aWNhIiB5PSIxMTQuNTEiIHg9IjE1Ni44MiI+UG9kd3nFvHN6b255PC90ZXh0PiYjeGE7PHRleHQgb3BhY2l0eT0iMS4wMCIgZmlsbD0iYmxhY2siIGZvbnQtc2l6ZT0iMTIuMDBweCIgZm9udC1mYW1pbHk9IkhlbHZldGljYSIgeT0iMTI5LjUxIiB4PSIxNTYuODIiPk9ncnpld2FueTwvdGV4dD4mI3hhOzx0ZXh0IG9wYWNpdHk9IjEuMDAiIGZpbGw9ImJsYWNrIiBmb250LXNpemU9IjEyLjAwcHgiIGZvbnQtZmFtaWx5PSJIZWx2ZXRpY2EiIHk9IjE0NC41MSIgeD0iMTU2LjgyIj5DaMWCb2RuaWN6eTwvdGV4dD4mI3hhOzxwYXRoIGZpbGw9IndoaXRlIiBzdHJva2UtbGluZWpvaW49InJvdW5kIiBzdHJva2UtbGluZWNhcD0icm91bmQiIHN0cm9rZT0iYmxhY2siIHN0cm9rZS13aWR0aD0iMS4wMCIgZD0iTSA2Mi44MiAyMTkuNDAgTCAyODIuMzIgMjE5LjQwIEwgMjgyLjMyIDQxMC41OCBMIDYyLjgyIDQxMC41OCBaIE0gNjIuODIgMjQwLjQwIEwgMjgyLjMyIDI0MC40MCBMIDI4Mi4zMiAyNDAuNDAgTCA2Mi44MiAyNDAuNDAgWiBNIDYyLjgyIDM1MS40MCBMIDI4Mi4zMiAzNTEuNDAgTCAyODIuMzIgMzUxLjQwIEwgNjIuODIgMzUxLjQwIFogTSA2Mi44MiAzNTEuNDAiLz4mI3hhOyYjeGE7PHRleHQgb3BhY2l0eT0iMS4wMCIgZmlsbD0iYmxhY2siIGZvbnQtc2l6ZT0iMTIuMDBweCIgZm9udC1mYW1pbHk9IkhlbHZldGljYSIgeT0iMjM0LjY0IiB4PSIxMzIuODgiPktvbnRlbmVyb3dpZWM8L3RleHQ+JiN4YTs8dGV4dCBvcGFjaXR5PSIxLjAwIiBmaWxsPSJibGFjayIgZm9udC1zaXplPSIxMi4wMHB4IiBmb250LWZhbWlseT0iSGVsdmV0aWNhIiB5PSIyNTUuNjQiIHg9IjY3LjMyIj5OYXp3YTwvdGV4dD4mI3hhOzx0ZXh0IG9wYWNpdHk9IjEuMDAiIGZpbGw9ImJsYWNrIiBmb250LXNpemU9IjEyLjAwcHgiIGZvbnQtZmFtaWx5PSJIZWx2ZXRpY2EiIHk9IjI3MC42NCIgeD0iNjcuMzIiPlBvcnQgbWFjaWVyenlzdHk8L3RleHQ+JiN4YTs8dGV4dCBvcGFjaXR5PSIxLjAwIiBmaWxsPSJibGFjayIgZm9udC1zaXplPSIxMi4wMHB4IiBmb250LWZhbWlseT0iSGVsdmV0aWNhIiB5PSIyODUuNjQiIHg9IjY3LjMyIj5NYWtzeW1hbG5hIHBvamVtbm/Fm8SHIHsmbHQ7PTUwMDAgVEVVfTwvdGV4dD4mI3hhOzx0ZXh0IG9wYWNpdHk9IjEuMDAiIGZpbGw9ImJsYWNrIiBmb250LXNpemU9IjEyLjAwcHgiIGZvbnQtZmFtaWx5PSJIZWx2ZXRpY2EiIHk9IjMwMC42NCIgeD0iNjcuMzIiPkTFgnVnb8WbxIc8L3RleHQ+JiN4YTs8dGV4dCBvcGFjaXR5PSIxLjAwIiBmaWxsPSJibGFjayIgZm9udC1zaXplPSIxMi4wMHB4IiBmb250LWZhbWlseT0iSGVsdmV0aWNhIiB5PSIzMTUuNjQiIHg9IjY3LjMyIj5TemVyb2tvxZvEhyBjYcWCa293aXRhPC90ZXh0PiYjeGE7PHRleHQgb3BhY2l0eT0iMS4wMCIgZmlsbD0iYmxhY2siIGZvbnQtc2l6ZT0iMTIuMDBweCIgZm9udC1mYW1pbHk9IkhlbHZldGljYSIgeT0iMzMwLjY0IiB4PSI2Ny4zMiI+WmFudXJ6ZW5pZTwvdGV4dD4mI3hhOzx0ZXh0IG9wYWNpdHk9IjEuMDAiIGZpbGw9ImJsYWNrIiBmb250LXNpemU9IjEyLjAwcHgiIGZvbnQtZmFtaWx5PSJIZWx2ZXRpY2EiIHk9IjM0NS42NCIgeD0iNjcuMzIiPktsYXNhIHd5bWlhcsOzdyA9IFBhbmFtYXg8L3RleHQ+JiN4YTs8cGF0aCBmaWxsPSJ3aGl0ZSIgc3Ryb2tlLWxpbmVqb2luPSJyb3VuZCIgc3Ryb2tlLWxpbmVjYXA9InJvdW5kIiBzdHJva2U9ImJsYWNrIiBzdHJva2Utd2lkdGg9IjEuMDAiIGQ9Ik0gMzI1Ljc2IDIxOS40MCBMIDUzNy4yMCAyMTkuNDAgTCA1MzcuMjAgNDEwLjU4IEwgMzI1Ljc2IDQxMC41OCBaIE0gMzI1Ljc2IDI0MC40MCBMIDUzNy4yMCAyNDAuNDAgTCA1MzcuMjAgMjQwLjQwIEwgMzI1Ljc2IDI0MC40MCBaIE0gMzI1Ljc2IDMwNi40MCBMIDUzNy4yMCAzMDYuNDAgTCA1MzcuMjAgMzA2LjQwIEwgMzI1Ljc2IDMwNi40MCBaIE0gMzI1Ljc2IDMwNi40MCIvPiYjeGE7JiN4YTs8dGV4dCBvcGFjaXR5PSIxLjAwIiBmaWxsPSJibGFjayIgZm9udC1zaXplPSIxMi4wMHB4IiBmb250LWZhbWlseT0iSGVsdmV0aWNhIiB5PSIyMzQuNjQiIHg9IjM5MC44MCI+RHp3aWdfcG9ydG93eTwvdGV4dD4mI3hhOzx0ZXh0IG9wYWNpdHk9IjEuMDAiIGZpbGw9ImJsYWNrIiBmb250LXNpemU9IjEyLjAwcHgiIGZvbnQtZmFtaWx5PSJIZWx2ZXRpY2EiIHk9IjI1NS42NCIgeD0iMzMwLjI2Ij5VZMW6d2lnPC90ZXh0PiYjeGE7PHRleHQgb3BhY2l0eT0iMS4wMCIgZmlsbD0iYmxhY2siIGZvbnQtc2l6ZT0iMTIuMDBweCIgZm9udC1mYW1pbHk9IkhlbHZldGljYSIgeT0iMjcwLjY0IiB4PSIzMzAuMjYiPk51bWVyIHJlamVzdHJhY3lqbnkgVURUIHt1bmlxdWV9PC90ZXh0PiYjeGE7PHRleHQgb3BhY2l0eT0iMS4wMCIgZmlsbD0iYmxhY2siIGZvbnQtc2l6ZT0iMTIuMDBweCIgZm9udC1mYW1pbHk9IkhlbHZldGljYSIgeT0iMjg1LjY0IiB4PSIzMzAuMjYiPkxpc3RhIG9ic8WCdWdpd2FueWNoIGNod3l0YWvDs3cgezEuLip9PC90ZXh0PiYjeGE7PHRleHQgb3BhY2l0eT0iMS4wMCIgZmlsbD0iYmxhY2siIGZvbnQtc2l6ZT0iMTIuMDBweCIgZm9udC1mYW1pbHk9IkhlbHZldGljYSIgeT0iMzAwLjY0IiB4PSIzMzAuMjYiPkRhdGEgb3N0YXRuaWVnbyBzZXJ3aXN1PC90ZXh0PiYjeGE7PHRleHQgb3BhY2l0eT0iMS4wMCIgZmlsbD0iIzA3MDcwNyIgZm9udC1zaXplPSIxMi4wMHB4IiBmb250LWZhbWlseT0iSGVsdmV0aWNhIiB5PSIzNjMuMjMiIHg9IjMzMC4yNiI+b3N0YXRuaV9zZXJ3aXNfemFwaXMoKTwvdGV4dD4mI3hhOzxwYXRoIGZpbGw9IndoaXRlIiBzdHJva2UtbGluZWpvaW49InJvdW5kIiBzdHJva2UtbGluZWNhcD0icm91bmQiIHN0cm9rZT0iYmxhY2siIHN0cm9rZS13aWR0aD0iMS4wMCIgZD0iTSA1NjcuNDcgMjE5LjQwIEwgNzU3Ljg4IDIxOS40MCBMIDc1Ny44OCA0MTAuNTggTCA1NjcuNDcgNDEwLjU4IFogTSA1NjcuNDcgMjQwLjQwIEwgNzU3Ljg4IDI0MC40MCBMIDc1Ny44OCAyNDAuNDAgTCA1NjcuNDcgMjQwLjQwIFogTSA1NjcuNDcgMzIxLjQwIEwgNzU3Ljg4IDMyMS40MCBMIDc1Ny44OCAzMjEuNDAgTCA1NjcuNDcgMzIxLjQwIFogTSA1NjcuNDcgMzIxLjQwIi8+JiN4YTsmI3hhOzx0ZXh0IG9wYWNpdHk9IjEuMDAiIGZpbGw9ImJsYWNrIiBmb250LXNpemU9IjEyLjAwcHgiIGZvbnQtZmFtaWx5PSJIZWx2ZXRpY2EiIHk9IjIzNC42NCIgeD0iNjI5LjMyIj5QcnplxYJhZHVuZWs8L3RleHQ+JiN4YTs8dGV4dCBvcGFjaXR5PSIxLjAwIiBmaWxsPSJibGFjayIgZm9udC1zaXplPSIxMi4wMHB4IiBmb250LWZhbWlseT0iSGVsdmV0aWNhIiB5PSIyNTUuNjQiIHg9IjU3MS45NyI+Um96cG9jesSZY2llPC90ZXh0PiYjeGE7PHRleHQgb3BhY2l0eT0iMS4wMCIgZmlsbD0iYmxhY2siIGZvbnQtc2l6ZT0iMTIuMDBweCIgZm9udC1mYW1pbHk9IkhlbHZldGljYSIgeT0iMjcwLjY0IiB4PSI1NzEuOTciPktvbmllYzwvdGV4dD4mI3hhOzx0ZXh0IG9wYWNpdHk9IjEuMDAiIGZpbGw9ImJsYWNrIiBmb250LXNpemU9IjEyLjAwcHgiIGZvbnQtZmFtaWx5PSJIZWx2ZXRpY2EiIHk9IjI4NS42NCIgeD0iNTcxLjk3Ij5OYXp3YSBrb250ZW5lcm93Y2E8L3RleHQ+JiN4YTs8dGV4dCBvcGFjaXR5PSIxLjAwIiBmaWxsPSJibGFjayIgZm9udC1zaXplPSIxMi4wMHB4IiBmb250LWZhbWlseT0iSGVsdmV0aWNhIiB5PSIzMDAuNjQiIHg9IjU3MS45NyI+TGljemJhIGtvbnRlbmVyw7N3PC90ZXh0PiYjeGE7PHRleHQgb3BhY2l0eT0iMS4wMCIgZmlsbD0iYmxhY2siIGZvbnQtc2l6ZT0iMTIuMDBweCIgZm9udC1mYW1pbHk9IkhlbHZldGljYSIgeT0iMzE1LjY0IiB4PSI1NzEuOTciPlJvZHphaiAge3phxYJhZHVuZWssIHJvesWCYWR1bmVrfTwvdGV4dD4mI3hhOzx0ZXh0IHRleHQtZGVjb3JhdGlvbj0idW5kZXJsaW5lIiBvcGFjaXR5PSIxLjAwIiBmaWxsPSIjMDcwNzA3IiBmb250LXNpemU9IjEyLjAwcHgiIGZvbnQtZmFtaWx5PSJIZWx2ZXRpY2EiIHk9IjM2My4yMyIgeD0iNTcxLjk3Ij5uYWp3aWVjZWpfa29udGVuZXJvdygpPC90ZXh0PiYjeGE7PHRleHQgdGV4dC1kZWNvcmF0aW9uPSJ1bmRlcmxpbmUiIG9wYWNpdHk9IjEuMDAiIGZpbGw9IiMwNzA3MDciIGZvbnQtc2l6ZT0iMTIuMDBweCIgZm9udC1mYW1pbHk9IkhlbHZldGljYSIgeT0iMzc4LjIzIiB4PSI1NzEuOTciPmNhbGtvd2l0eV9wcnplbGFkdW5laygpPC90ZXh0PiYjeGE7PHBhdGggZmlsbD0id2hpdGUiIHN0cm9rZS1saW5lam9pbj0icm91bmQiIHN0cm9rZS1saW5lY2FwPSJyb3VuZCIgc3Ryb2tlPSJibGFjayIgc3Ryb2tlLXdpZHRoPSIxLjAwIiBkPSJNIDMyNS43NiA0NTEuNTYgTCA1NDAuODMgNDUxLjU2IEwgNTQwLjgzIDY1Ni40NCBMIDMyNS43NiA2NTYuNDQgWiBNIDMyNS43NiA0NzIuNTYgTCA1NDAuODMgNDcyLjU2IEwgNTQwLjgzIDQ3Mi41NiBMIDMyNS43NiA0NzIuNTYgWiBNIDMyNS43NiA1NTMuNTYgTCA1NDAuODMgNTUzLjU2IEwgNTQwLjgzIDU1My41NiBMIDMyNS43NiA1NTMuNTYgWiBNIDMyNS43NiA1NTMuNTYiLz4mI3hhOyYjeGE7PHRleHQgb3BhY2l0eT0iMS4wMCIgZmlsbD0iYmxhY2siIGZvbnQtc2l6ZT0iMTIuMDBweCIgZm9udC1mYW1pbHk9IkhlbHZldGljYSIgeT0iNDY2LjgwIiB4PSI0MTUuMjgiPlJhcG9ydDwvdGV4dD4mI3hhOzx0ZXh0IHRleHQtZGVjb3JhdGlvbj0idW5kZXJsaW5lIiBvcGFjaXR5PSIxLjAwIiBmaWxsPSJibGFjayIgZm9udC1zaXplPSIxMi4wMHB4IiBmb250LWZhbWlseT0iSGVsdmV0aWNhIiB5PSI0ODcuODAiIHg9IjMzMC4yNiI+TmF6d2EgcG9ydHU8L3RleHQ+JiN4YTs8dGV4dCB0ZXh0LWRlY29yYXRpb249InVuZGVybGluZSIgb3BhY2l0eT0iMS4wMCIgZmlsbD0iYmxhY2siIGZvbnQtc2l6ZT0iMTIuMDBweCIgZm9udC1mYW1pbHk9IkhlbHZldGljYSIgeT0iNTAyLjgwIiB4PSIzMzAuMjYiPlJvazwvdGV4dD4mI3hhOzx0ZXh0IHRleHQtZGVjb3JhdGlvbj0idW5kZXJsaW5lIiBvcGFjaXR5PSIxLjAwIiBmaWxsPSJibGFjayIgZm9udC1zaXplPSIxMi4wMHB4IiBmb250LWZhbWlseT0iSGVsdmV0aWNhIiB5PSI1MTcuODAiIHg9IjMzMC4yNiI+TWllc2nEhWM8L3RleHQ+JiN4YTs8dGV4dCB0ZXh0LWRlY29yYXRpb249InVuZGVybGluZSIgb3BhY2l0eT0iMS4wMCIgZmlsbD0iYmxhY2siIGZvbnQtc2l6ZT0iMTIuMDBweCIgZm9udC1mYW1pbHk9IkhlbHZldGljYSIgeT0iNTMyLjgwIiB4PSIzMzAuMjYiPkxpY3piYSBrb250ZW5lcsOzdzwvdGV4dD4mI3hhOzx0ZXh0IHRleHQtZGVjb3JhdGlvbj0idW5kZXJsaW5lIiBvcGFjaXR5PSIxLjAwIiBmaWxsPSJibGFjayIgZm9udC1zaXplPSIxMi4wMHB4IiBmb250LWZhbWlseT0iSGVsdmV0aWNhIiB5PSI1NDcuODAiIHg9IjMzMC4yNiI+UG9yw7N3bmFuaWUgeiByb2tpZW0gcG9wcnplZG5pbSBbMC4uMV08L3RleHQ+JiN4YTs8cGF0aCBmaWxsPSJ3aGl0ZSIgc3Ryb2tlLWxpbmVqb2luPSJyb3VuZCIgc3Ryb2tlLWxpbmVjYXA9InJvdW5kIiBzdHJva2U9ImJsYWNrIiBzdHJva2Utd2lkdGg9IjEuMDAiIGQ9Ik0gODAwLjc5IDIxOS40MCBMIDk3Ni4yOSAyMTkuNDAgTCA5NzYuMjkgMzE0Ljc4IEwgODAwLjc5IDMxNC43OCBaIE0gODAwLjc5IDIxOS40MCIvPiYjeGE7JiN4YTs8dGV4dCBvcGFjaXR5PSIxLjAwIiBmaWxsPSJibGFjayIgZm9udC1zaXplPSIxMi4wMHB4IiBmb250LWZhbWlseT0iSGVsdmV0aWNhIiB5PSIyNTYuODMiIHg9IjgyMC4xNyI+Q3phcyBrb8WEY2EgbmllIG1vxbxlIGJ5xIc8L3RleHQ+JiN4YTs8dGV4dCBvcGFjaXR5PSIxLjAwIiBmaWxsPSJibGFjayIgZm9udC1zaXplPSIxMi4wMHB4IiBmb250LWZhbWlseT0iSGVsdmV0aWNhIiB5PSIyNzEuODMiIHg9IjgyOC41MiI+IHdjemXFm25pZWpzenkgbmnFvCBjemFzPC90ZXh0PiYjeGE7PHRleHQgb3BhY2l0eT0iMS4wMCIgZmlsbD0iYmxhY2siIGZvbnQtc2l6ZT0iMTIuMDBweCIgZm9udC1mYW1pbHk9IkhlbHZldGljYSIgeT0iMjg2LjgzIiB4PSI4NTQuODUiPiByb3pwb2N6xJljaWE8L3RleHQ+JiN4YTs8cGF0aCBmaWxsPSJub25lIiBzdHJva2UtZGFzaGFycmF5PSIyLjAwLDYuMDAiIHN0cm9rZS1saW5lam9pbj0icm91bmQiIHN0cm9rZS1saW5lY2FwPSJyb3VuZCIgc3Ryb2tlPSJibGFjayIgc3Ryb2tlLXdpZHRoPSIxLjAwIiBkPSJNIDc1Ny44OCAyNjcuMTkgTCA4MDAuNzkgMjY3LjA5Ii8+JiN4YTsmI3hhOzxwYXRoIGZpbGw9Im5vbmUiIHN0cm9rZS1kYXNoYXJyYXk9IjIuMDAsNC4wMCIgc3Ryb2tlLWxpbmVqb2luPSJyb3VuZCIgc3Ryb2tlLWxpbmVjYXA9InJvdW5kIiBzdHJva2U9ImJsYWNrIiBzdHJva2Utd2lkdGg9IjEuMDAiIGQ9Ik0gMzI1Ljc2IDExNS40MiBMIDI4Mi4zMiAxMDYuNTIiLz4mI3hhOyYjeGE7PHBhdGggZmlsbD0ibm9uZSIgc3Ryb2tlLWRhc2hhcnJheT0iMi4wMCw0LjAwIiBzdHJva2UtbGluZWpvaW49InJvdW5kIiBzdHJva2UtbGluZWNhcD0icm91bmQiIHN0cm9rZT0iYmxhY2siIHN0cm9rZS13aWR0aD0iMS4wMCIgZD0iTSA0ODguNzggMTMyLjEyIEwgNTM3LjIwIDExOS41NiIvPiYjeGE7JiN4YTs8cGF0aCBmaWxsPSJ3aGl0ZSIgc3Ryb2tlLWxpbmVqb2luPSJtaXRlciIgc3Ryb2tlLWxpbmVjYXA9InJvdW5kIiBzdHJva2U9ImJsYWNrIiBzdHJva2Utd2lkdGg9IjIuMDAiIGQ9Ik0gMjgyLjMyIDQ2Ny44MyBMIDI4Mi4zMiA0ODEuMDAgQyAyODIuMzIgNDkxLjA1IDI3OS44NCA0OTkuMjAgMjc2Ljc3IDQ5OS4yMCBMIDEyNC4yMSA0OTkuMjAgQyAxMjEuMTQgNDk5LjIwIDExOC42NiA0OTEuMDUgMTE4LjY2IDQ4MS4wMCBMIDExOC42NiA0NTQuNjYgQyAxMTguNjYgNDQ0LjYwIDEyMS4xNCA0MzYuNDUgMTI0LjIxIDQzNi40NSBMIDI3Ni43NyA0MzYuNDUgQyAyNzkuODQgNDM2LjQ1IDI4Mi4zMiA0NDQuNjAgMjgyLjMyIDQ1NC42NiBaIE0gMjgyLjMyIDQ2Ny44MyIvPiYjeGE7JiN4YTs8dGV4dCBvcGFjaXR5PSIxLjAwIiBmaWxsPSJibGFjayIgZm9udC1zaXplPSIxMi4wMHB4IiBmb250LWZhbWlseT0iSGVsdmV0aWNhIiB5PSI0NTAuMDciIHg9IjEyMy42NiI+SmXFvGVsaSBtaWHFgmFieSB0byBiecSHIGRhdGE8L3RleHQ+JiN4YTs8dGV4dCBvcGFjaXR5PSIxLjAwIiBmaWxsPSJibGFjayIgZm9udC1zaXplPSIxMi4wMHB4IiBmb250LWZhbWlseT0iSGVsdmV0aWNhIiB5PSI0NjUuMDciIHg9IjEyMy42NiI+IG9zdGF0bmllZ28gc2Vyd2lzdSB3xZtyw7NkPC90ZXh0PiYjeGE7PHRleHQgb3BhY2l0eT0iMS4wMCIgZmlsbD0iYmxhY2siIGZvbnQtc2l6ZT0iMTIuMDBweCIgZm9udC1mYW1pbHk9IkhlbHZldGljYSIgeT0iNDgwLjA3IiB4PSIxMjMuNjYiPiB3c3p5c3RraWNoIGTFundpZ8OzdywgYnnFgmFieTwvdGV4dD4mI3hhOzx0ZXh0IG9wYWNpdHk9IjEuMDAiIGZpbGw9ImJsYWNrIiBmb250LXNpemU9IjEyLjAwcHgiIGZvbnQtZmFtaWx5PSJIZWx2ZXRpY2EiIHk9IjQ5NS4wNyIgeD0iMTIzLjY2Ij4gdG8gbWV0b2RhIGtsYXNvd2E8L3RleHQ+JiN4YTs8cGF0aCBmaWxsPSJub25lIiBzdHJva2UtZGFzaGFycmF5PSIyLjAwLDQuMDAiIHN0cm9rZS1saW5lam9pbj0icm91bmQiIHN0cm9rZS1saW5lY2FwPSJyb3VuZCIgc3Ryb2tlPSJibGFjayIgc3Ryb2tlLXdpZHRoPSIyLjAwIiBkPSJNIDI4Mi4zMiA0NjcuODMgTCAzMjUuNzYgMzYyLjc4Ii8+JiN4YTsmI3hhOzxwYXRoIGZpbGw9IndoaXRlIiBzdHJva2UtbGluZWpvaW49Im1pdGVyIiBzdHJva2UtbGluZWNhcD0icm91bmQiIHN0cm9rZT0iYmxhY2siIHN0cm9rZS13aWR0aD0iMi4wMCIgZD0iTSA3ODQuNTQgNDkyLjQwIEwgNzg0LjU0IDUwOS41NCBDIDc4NC41NCA1MjIuNjIgNzgxLjUwIDUzMy4yMyA3NzcuNzUgNTMzLjIzIEwgNTkxLjQ2IDUzMy4yMyBDIDU4Ny43MSA1MzMuMjMgNTg0LjY3IDUyMi42MiA1ODQuNjcgNTA5LjU0IEwgNTg0LjY3IDQ3NS4yNSBDIDU4NC42NyA0NjIuMTcgNTg3LjcxIDQ1MS41NiA1OTEuNDYgNDUxLjU2IEwgNzc3Ljc1IDQ1MS41NiBDIDc4MS41MCA0NTEuNTYgNzg0LjU0IDQ2Mi4xNyA3ODQuNTQgNDc1LjI1IFogTSA3ODQuNTQgNDkyLjQwIi8+JiN4YTsmI3hhOzx0ZXh0IG9wYWNpdHk9IjEuMDAiIGZpbGw9ImJsYWNrIiBmb250LXNpemU9IjEyLjAwcHgiIGZvbnQtZmFtaWx5PSJIZWx2ZXRpY2EiIHk9IjQ2Ny4xNCIgeD0iNTg5LjY3Ij5aYWvFgmFkYWrEhWMsIMW8ZSBzeXN0ZW0gbWE8L3RleHQ+JiN4YTs8dGV4dCBvcGFjaXR5PSIxLjAwIiBmaWxsPSJibGFjayIgZm9udC1zaXplPSIxMi4wMHB4IiBmb250LWZhbWlseT0iSGVsdmV0aWNhIiB5PSI0ODIuMTQiIHg9IjU4OS42NyI+IG9ic8WCdWdpd2HEhyBqZWRlbiBrb25rcmV0bnkgcG9ydDwvdGV4dD4mI3hhOzx0ZXh0IG9wYWNpdHk9IjEuMDAiIGZpbGw9ImJsYWNrIiBmb250LXNpemU9IjEyLjAwcHgiIGZvbnQtZmFtaWx5PSJIZWx2ZXRpY2EiIHk9IjQ5Ny4xNCIgeD0iNTg5LjY3Ij4gbW9yc2tpIHRvIGF0cnlidXQgdGVuIGLEmWR6aWU8L3RleHQ+JiN4YTs8dGV4dCBvcGFjaXR5PSIxLjAwIiBmaWxsPSJibGFjayIgZm9udC1zaXplPSIxMi4wMHB4IiBmb250LWZhbWlseT0iSGVsdmV0aWNhIiB5PSI1MTIuMTQiIHg9IjU4OS42NyI+IGF0cnlidXRlbSBrbGFzb3d5bSBvIG5hendpZTwvdGV4dD4mI3hhOzx0ZXh0IG9wYWNpdHk9IjEuMDAiIGZpbGw9ImJsYWNrIiBmb250LXNpemU9IjEyLjAwcHgiIGZvbnQtZmFtaWx5PSJIZWx2ZXRpY2EiIHk9IjUyNy4xNCIgeD0iNTg5LjY3Ij4gZGFuZWdvIHBvcnR1PC90ZXh0PiYjeGE7PHBhdGggZmlsbD0ibm9uZSIgc3Ryb2tlLWRhc2hhcnJheT0iMi4wMCw0LjAwIiBzdHJva2UtbGluZWpvaW49InJvdW5kIiBzdHJva2UtbGluZWNhcD0icm91bmQiIHN0cm9rZT0iYmxhY2siIHN0cm9rZS13aWR0aD0iMi4wMCIgZD0iTSA1NDEuODggNDg1LjUyIEwgNTg0LjY3IDQ5Mi40MCIvPiYjeGE7JiN4YTs8cGF0aCBmaWxsPSJ3aGl0ZSIgc3Ryb2tlLWxpbmVqb2luPSJyb3VuZCIgc3Ryb2tlLWxpbmVjYXA9InJvdW5kIiBzdHJva2U9ImJsYWNrIiBzdHJva2Utd2lkdGg9IjEuMDAiIGQ9Ik0gNjIuODIgNjc4LjM0IEwgMzA0LjIyIDY3OC4zNCBMIDMwNC4yMiA2OTkuMzQgTCA2Mi44MiA2OTkuMzQgWiBNIDYyLjgyIDY5OS4zNCBMIDMwNC4yMiA2OTkuMzQgTCAzMDQuMjIgODQ0LjU1IEwgNjIuODIgODQ0LjU1IFogTSA2Mi44MiA2OTkuMzQiLz4mI3hhOyYjeGE7PHRleHQgb3BhY2l0eT0iMS4wMCIgZmlsbD0iYmxhY2siIGZvbnQtc2l6ZT0iMTIuMDBweCIgZm9udC1mYW1pbHk9IkhlbHZldGljYSIgeT0iNjkzLjU4IiB4PSI2Ny4zMiI+OktvbnRlbmVyPC90ZXh0PiYjeGE7PHRleHQgb3BhY2l0eT0iMS4wMCIgZmlsbD0iYmxhY2siIGZvbnQtc2l6ZT0iMTIuMDBweCIgZm9udC1mYW1pbHk9IkhlbHZldGljYSIgeT0iNzMxLjkzIiB4PSI2Ny4zMiI+TnVtZXI94oCeMTIzNDU2N+KAnTwvdGV4dD4mI3hhOzx0ZXh0IG9wYWNpdHk9IjEuMDAiIGZpbGw9ImJsYWNrIiBmb250LXNpemU9IjEyLjAwcHgiIGZvbnQtZmFtaWx5PSJIZWx2ZXRpY2EiIHk9Ijc0Ni45MyIgeD0iNjcuMzIiPlR5cD3igJ5wbGF0Zm9ybWHigJ08L3RleHQ+JiN4YTs8dGV4dCBvcGFjaXR5PSIxLjAwIiBmaWxsPSJibGFjayIgZm9udC1zaXplPSIxMi4wMHB4IiBmb250LWZhbWlseT0iSGVsdmV0aWNhIiB5PSI3NjEuOTMiIHg9IjY3LjMyIj5Sb2R6YWo94oCeT2dyemV3YW554oCdPC90ZXh0PiYjeGE7PHRleHQgb3BhY2l0eT0iMS4wMCIgZmlsbD0iYmxhY2siIGZvbnQtc2l6ZT0iMTIuMDBweCIgZm9udC1mYW1pbHk9IkhlbHZldGljYSIgeT0iNzc2LjkzIiB4PSI2Ny4zMiI+V3ltaWFyeT3igJ5kW13igJ08L3RleHQ+JiN4YTs8dGV4dCBvcGFjaXR5PSIxLjAwIiBmaWxsPSJibGFjayIgZm9udC1zaXplPSIxMi4wMHB4IiBmb250LWZhbWlseT0iSGVsdmV0aWNhIiB5PSI3OTEuOTMiIHg9IjY3LjMyIj5TdGFuPeKAnlcgcG9yY2ll4oCdPC90ZXh0PiYjeGE7PHRleHQgb3BhY2l0eT0iMS4wMCIgZmlsbD0iYmxhY2siIGZvbnQtc2l6ZT0iMTIuMDBweCIgZm9udC1mYW1pbHk9IkhlbHZldGljYSIgeT0iODA2LjkzIiB4PSI2Ny4zMiI+TWFrc3ltYWxuYSBtYXNhPeKAnjMwMDAwa2figJ08L3RleHQ+JiN4YTs8dGV4dCBvcGFjaXR5PSIxLjAwIiBmaWxsPSJibGFjayIgZm9udC1zaXplPSIxMi4wMHB4IiBmb250LWZhbWlseT0iSGVsdmV0aWNhIiB5PSI4MjEuOTMiIHg9IjY3LjMyIj5LdWJhdHVyYSB3ZXduxJl0cnpuYT3igJ5vYmxpY3pvbmFfa3ViYXR1cmHigJ08L3RleHQ+JiN4YTs8cGF0aCBmaWxsPSJ3aGl0ZSIgc3Ryb2tlLWxpbmVqb2luPSJyb3VuZCIgc3Ryb2tlLWxpbmVjYXA9InJvdW5kIiBzdHJva2U9ImJsYWNrIiBzdHJva2Utd2lkdGg9IjEuMDAiIGQ9Ik0gMzQzLjM4IDY3OC4zNCBMIDU0OC4zNyA2NzguMzQgTCA1NDguMzcgNjk5LjM0IEwgMzQzLjM4IDY5OS4zNCBaIE0gMzQzLjM4IDY5OS4zNCBMIDU0OC4zNyA2OTkuMzQgTCA1NDguMzcgODQ0LjU1IEwgMzQzLjM4IDg0NC41NSBaIE0gMzQzLjM4IDY5OS4zNCIvPiYjeGE7JiN4YTs8dGV4dCBvcGFjaXR5PSIxLjAwIiBmaWxsPSJibGFjayIgZm9udC1zaXplPSIxMi4wMHB4IiBmb250LWZhbWlseT0iSGVsdmV0aWNhIiB5PSI2OTMuNTgiIHg9IjM0Ny44OCI+OktvbnRlbmVyb3dpZWM8L3RleHQ+JiN4YTs8dGV4dCBvcGFjaXR5PSIxLjAwIiBmaWxsPSJibGFjayIgZm9udC1zaXplPSIxMi4wMHB4IiBmb250LWZhbWlseT0iSGVsdmV0aWNhIiB5PSI3MzEuOTMiIHg9IjM0Ny44OCI+TmF6d2E94oCeRW1tYeKAnTwvdGV4dD4mI3hhOzx0ZXh0IG9wYWNpdHk9IjEuMDAiIGZpbGw9ImJsYWNrIiBmb250LXNpemU9IjEyLjAwcHgiIGZvbnQtZmFtaWx5PSJIZWx2ZXRpY2EiIHk9Ijc0Ni45MyIgeD0iMzQ3Ljg4Ij5Qb3J0IG1hY2llcnp5c3R5PeKAnlBvcnQgR2R5bmlh4oCdPC90ZXh0PiYjeGE7PHRleHQgb3BhY2l0eT0iMS4wMCIgZmlsbD0iYmxhY2siIGZvbnQtc2l6ZT0iMTIuMDBweCIgZm9udC1mYW1pbHk9IkhlbHZldGljYSIgeT0iNzYxLjkzIiB4PSIzNDcuODgiPk1ha3N5bWFsbmEgcG9qZW1ub8WbxIc94oCeNTAwMFRFVeKAnTwvdGV4dD4mI3hhOzx0ZXh0IG9wYWNpdHk9IjEuMDAiIGZpbGw9ImJsYWNrIiBmb250LXNpemU9IjEyLjAwcHgiIGZvbnQtZmFtaWx5PSJIZWx2ZXRpY2EiIHk9Ijc3Ni45MyIgeD0iMzQ3Ljg4Ij5ExYJ1Z2/Fm8SHPeKAnjMyMCwwNG3igJ08L3RleHQ+JiN4YTs8dGV4dCBvcGFjaXR5PSIxLjAwIiBmaWxsPSJibGFjayIgZm9udC1zaXplPSIxMi4wMHB4IiBmb250LWZhbWlseT0iSGVsdmV0aWNhIiB5PSI3OTEuOTMiIHg9IjM0Ny44OCI+U3plcm9rb8WbxIcgY2HFgmtvd2l0YT3igJ4zMyw1NG3igJ08L3RleHQ+JiN4YTs8dGV4dCBvcGFjaXR5PSIxLjAwIiBmaWxsPSJibGFjayIgZm9udC1zaXplPSIxMi4wMHB4IiBmb250LWZhbWlseT0iSGVsdmV0aWNhIiB5PSI4MDYuOTMiIHg9IjM0Ny44OCI+WmFudXJ6ZW5pZT3igJ4xMiw1beKAnTwvdGV4dD4mI3hhOzx0ZXh0IG9wYWNpdHk9IjEuMDAiIGZpbGw9ImJsYWNrIiBmb250LXNpemU9IjEyLjAwcHgiIGZvbnQtZmFtaWx5PSJIZWx2ZXRpY2EiIHk9IjgyMS45MyIgeD0iMzQ3Ljg4Ij5LbGFzYSB3eW1pYXLDs3cgPSBQYW5hbWF4PC90ZXh0PiYjeGE7PHBhdGggZmlsbD0id2hpdGUiIHN0cm9rZS1saW5lam9pbj0icm91bmQiIHN0cm9rZS1saW5lY2FwPSJyb3VuZCIgc3Ryb2tlPSJibGFjayIgc3Ryb2tlLXdpZHRoPSIxLjAwIiBkPSJNIDU5MC44MyA2NzguMzQgTCA5MTIuNjggNjc4LjM0IEwgOTEyLjY4IDY5OS4zNCBMIDU5MC44MyA2OTkuMzQgWiBNIDU5MC44MyA2OTkuMzQgTCA5MTIuNjggNjk5LjM0IEwgOTEyLjY4IDg0NC41NSBMIDU5MC44MyA4NDQuNTUgWiBNIDU5MC44MyA2OTkuMzQiLz4mI3hhOyYjeGE7PHRleHQgb3BhY2l0eT0iMS4wMCIgZmlsbD0iYmxhY2siIGZvbnQtc2l6ZT0iMTIuMDBweCIgZm9udC1mYW1pbHk9IkhlbHZldGljYSIgeT0iNjkzLjU4IiB4PSI1OTUuMzMiPjpEendpZ19wb3J0b3d5PC90ZXh0PiYjeGE7PHRleHQgb3BhY2l0eT0iMS4wMCIgZmlsbD0iYmxhY2siIGZvbnQtc2l6ZT0iMTIuMDBweCIgZm9udC1mYW1pbHk9IkhlbHZldGljYSIgeT0iNzU0LjQzIiB4PSI1OTUuMzMiPlVkxbp3aWc94oCeNzAwMGtn4oCdPC90ZXh0PiYjeGE7PHRleHQgb3BhY2l0eT0iMS4wMCIgZmlsbD0iYmxhY2siIGZvbnQtc2l6ZT0iMTIuMDBweCIgZm9udC1mYW1pbHk9IkhlbHZldGljYSIgeT0iNzY5LjQzIiB4PSI1OTUuMzMiPk51bWVyIHJlamVzdHJhY3lqbnkgVURUPeKAnjEyNDMzNDY5NuKAnTwvdGV4dD4mI3hhOzx0ZXh0IG9wYWNpdHk9IjEuMDAiIGZpbGw9ImJsYWNrIiBmb250LXNpemU9IjEyLjAwcHgiIGZvbnQtZmFtaWx5PSJIZWx2ZXRpY2EiIHk9Ijc4NC40MyIgeD0iNTk1LjMzIj5MaXN0YSBvYnPFgnVnaXdhbnljaCBjaHd5dGFrw7N3PXvigJ5jaHd5dGFrIDHigJ0sIOKAnmNod3l0YWsgMuKAnX08L3RleHQ+JiN4YTs8dGV4dCBvcGFjaXR5PSIxLjAwIiBmaWxsPSJibGFjayIgZm9udC1zaXplPSIxMi4wMHB4IiBmb250LWZhbWlseT0iSGVsdmV0aWNhIiB5PSI3OTkuNDMiIHg9IjU5NS4zMyI+RGF0YSBvc3RhdG5pZWdvIHNlcndpc3U94oCeMjMuMTIuMjAyMeKAnTwvdGV4dD4mI3hhOzxwYXRoIGZpbGw9IndoaXRlIiBzdHJva2UtbGluZWpvaW49InJvdW5kIiBzdHJva2UtbGluZWNhcD0icm91bmQiIHN0cm9rZT0iYmxhY2siIHN0cm9rZS13aWR0aD0iMS4wMCIgZD0iTSAyNjguNTcgOTA2Ljg3IEwgNDc1LjI2IDkwNi44NyBMIDQ3NS4yNiA5MjcuODcgTCAyNjguNTcgOTI3Ljg3IFogTSAyNjguNTcgOTI3Ljg3IEwgNDc1LjI2IDkyNy44NyBMIDQ3NS4yNiAxMDQyLjI3IEwgMjY4LjU3IDEwNDIuMjcgWiBNIDI2OC41NyA5MjcuODciLz4mI3hhOyYjeGE7PHRleHQgb3BhY2l0eT0iMS4wMCIgZmlsbD0iYmxhY2siIGZvbnQtc2l6ZT0iMTIuMDBweCIgZm9udC1mYW1pbHk9IkhlbHZldGljYSIgeT0iOTIyLjExIiB4PSIyNzMuMDciPjpQcnplxYJhZHVuZWs8L3RleHQ+JiN4YTs8dGV4dCBvcGFjaXR5PSIxLjAwIiBmaWxsPSJibGFjayIgZm9udC1zaXplPSIxMi4wMHB4IiBmb250LWZhbWlseT0iSGVsdmV0aWNhIiB5PSI5NjAuMDYiIHg9IjI3My4wNyI+Um96cG9jesSZY2llPeKAnjIzLjA0LjIwMjEgMTM6MTI6NDPigJ08L3RleHQ+JiN4YTs8dGV4dCBvcGFjaXR5PSIxLjAwIiBmaWxsPSJibGFjayIgZm9udC1zaXplPSIxMi4wMHB4IiBmb250LWZhbWlseT0iSGVsdmV0aWNhIiB5PSI5NzUuMDYiIHg9IjI3My4wNyI+S29uaWVjPeKAnjI1LjA0LjIwMjEgMTU6MjM6MjPigJ08L3RleHQ+JiN4YTs8dGV4dCBvcGFjaXR5PSIxLjAwIiBmaWxsPSJibGFjayIgZm9udC1zaXplPSIxMi4wMHB4IiBmb250LWZhbWlseT0iSGVsdmV0aWNhIiB5PSI5OTAuMDYiIHg9IjI3My4wNyI+TmF6d2Ega29udGVuZXJvd2NhPeKAnkVtbWHigJ08L3RleHQ+JiN4YTs8dGV4dCBvcGFjaXR5PSIxLjAwIiBmaWxsPSJibGFjayIgZm9udC1zaXplPSIxMi4wMHB4IiBmb250LWZhbWlseT0iSGVsdmV0aWNhIiB5PSIxMDA1LjA2IiB4PSIyNzMuMDciPkxpY3piYSBrb250ZW5lcsOzdz3igJ40NTAw4oCdPC90ZXh0PiYjeGE7PHRleHQgb3BhY2l0eT0iMS4wMCIgZmlsbD0iYmxhY2siIGZvbnQtc2l6ZT0iMTIuMDBweCIgZm9udC1mYW1pbHk9IkhlbHZldGljYSIgeT0iMTAyMC4wNiIgeD0iMjczLjA3Ij5Sb2R6YWo94oCeUm96bGFkdW5la+KAnTwvdGV4dD4mI3hhOzxwYXRoIGZpbGw9IndoaXRlIiBzdHJva2UtbGluZWpvaW49InJvdW5kIiBzdHJva2UtbGluZWNhcD0icm91bmQiIHN0cm9rZT0iYmxhY2siIHN0cm9rZS13aWR0aD0iMS4wMCIgZD0iTSA1NDguMzcgOTA2Ljg3IEwgNzc2Ljk4IDkwNi44NyBMIDc3Ni45OCA5MjcuODcgTCA1NDguMzcgOTI3Ljg3IFogTSA1NDguMzcgOTI3Ljg3IEwgNzc2Ljk4IDkyNy44NyBMIDc3Ni45OCAxMDQyLjI3IEwgNTQ4LjM3IDEwNDIuMjcgWiBNIDU0OC4zNyA5MjcuODciLz4mI3hhOyYjeGE7PHRleHQgb3BhY2l0eT0iMS4wMCIgZmlsbD0iYmxhY2siIGZvbnQtc2l6ZT0iMTIuMDBweCIgZm9udC1mYW1pbHk9IkhlbHZldGljYSIgeT0iOTIyLjExIiB4PSI1NTIuODciPjpSYXBvcnQ8L3RleHQ+JiN4YTs8dGV4dCB0ZXh0LWRlY29yYXRpb249InVuZGVybGluZSIgb3BhY2l0eT0iMS4wMCIgZmlsbD0iYmxhY2siIGZvbnQtc2l6ZT0iMTIuMDBweCIgZm9udC1mYW1pbHk9IkhlbHZldGljYSIgeT0iOTYwLjA2IiB4PSI1NTIuODciPk5hendhIHBvcnR1PeKAnlBvcnQgR2R5bmlhPC90ZXh0PiYjeGE7PHRleHQgdGV4dC1kZWNvcmF0aW9uPSJ1bmRlcmxpbmUiIG9wYWNpdHk9IjEuMDAiIGZpbGw9ImJsYWNrIiBmb250LXNpemU9IjEyLjAwcHgiIGZvbnQtZmFtaWx5PSJIZWx2ZXRpY2EiIHk9Ijk3NS4wNiIgeD0iNTUyLjg3Ij5Sb2s94oCeMjAyMeKAnTwvdGV4dD4mI3hhOzx0ZXh0IHRleHQtZGVjb3JhdGlvbj0idW5kZXJsaW5lIiBvcGFjaXR5PSIxLjAwIiBmaWxsPSJibGFjayIgZm9udC1zaXplPSIxMi4wMHB4IiBmb250LWZhbWlseT0iSGVsdmV0aWNhIiB5PSI5OTAuMDYiIHg9IjU1Mi44NyI+TWllc2nEhWPigJ1Ld2llY2llxYTigJ08L3RleHQ+JiN4YTs8dGV4dCB0ZXh0LWRlY29yYXRpb249InVuZGVybGluZSIgb3BhY2l0eT0iMS4wMCIgZmlsbD0iYmxhY2siIGZvbnQtc2l6ZT0iMTIuMDBweCIgZm9udC1mYW1pbHk9IkhlbHZldGljYSIgeT0iMTAwNS4wNiIgeD0iNTUyLjg3Ij5MaWN6YmEga29udGVuZXLDs3c94oCeNDU1MDDigJ08L3RleHQ+JiN4YTs8dGV4dCB0ZXh0LWRlY29yYXRpb249InVuZGVybGluZSIgb3BhY2l0eT0iMS4wMCIgZmlsbD0iYmxhY2siIGZvbnQtc2l6ZT0iMTIuMDBweCIgZm9udC1mYW1pbHk9IkhlbHZldGljYSIgeT0iMTAyMC4wNiIgeD0iNTUyLjg3Ij5Qb3LDs3duYW5pZSB6IHJva2llbSBwb3ByemVkbmltIFswLi4xXTwvdGV4dD4mI3hhOyYjeGE7PC9zdmc+;" vertex="1" parent="1">
          <mxGeometry width="1010" height="1164" as="geometry" />
        </mxCell>
      </root>
    </mxGraphModel>
  </diagram>
</mxfile>
